<svg width="16" height="16" viewBox="0 0 16 16" fill="none" xmlns="http://www.w3.org/2000/svg">
<g id="dashboard-square-02">
<path id="Vector" d="M1.33301 3.99967C1.33301 2.74259 1.33301 2.11405 1.72353 1.72353C2.11405 1.33301 2.74259 1.33301 3.99967 1.33301C5.25675 1.33301 5.88529 1.33301 6.27581 1.72353C6.66634 2.11405 6.66634 2.74259 6.66634 3.99967V5.33301C6.66634 6.59009 6.66634 7.21861 6.27581 7.60914C5.88529 7.99967 5.25675 7.99967 3.99967 7.99967C2.74259 7.99967 2.11405 7.99967 1.72353 7.60914C1.33301 7.21861 1.33301 6.59009 1.33301 5.33301V3.99967Z" stroke="#141B34" stroke-width="1.5"/>
<path id="Vector_2" d="M1.33301 12.667C1.33301 12.0457 1.33301 11.7351 1.4345 11.4901C1.56983 11.1634 1.82939 10.9038 2.15609 10.7685C2.40113 10.667 2.71175 10.667 3.33301 10.667H4.66634C5.28759 10.667 5.59822 10.667 5.84325 10.7685C6.16995 10.9038 6.42952 11.1634 6.56485 11.4901C6.66634 11.7351 6.66634 12.0457 6.66634 12.667C6.66634 13.2883 6.66634 13.5989 6.56485 13.8439C6.42952 14.1706 6.16995 14.4302 5.84325 14.5655C5.59822 14.667 5.28759 14.667 4.66634 14.667H3.33301C2.71175 14.667 2.40113 14.667 2.15609 14.5655C1.82939 14.4302 1.56983 14.1706 1.4345 13.8439C1.33301 13.5989 1.33301 13.2883 1.33301 12.667Z" stroke="#141B34" stroke-width="1.5"/>
<path id="Vector_3" d="M9.33301 10.6667C9.33301 9.4096 9.33301 8.78107 9.72354 8.39053C10.1141 8 10.7426 8 11.9997 8C13.2567 8 13.8853 8 14.2758 8.39053C14.6663 8.78107 14.6663 9.4096 14.6663 10.6667V12C14.6663 13.2571 14.6663 13.8856 14.2758 14.2761C13.8853 14.6667 13.2567 14.6667 11.9997 14.6667C10.7426 14.6667 10.1141 14.6667 9.72354 14.2761C9.33301 13.8856 9.33301 13.2571 9.33301 12V10.6667Z" stroke="#141B34" stroke-width="1.5"/>
<path id="Vector_4" d="M9.33301 3.33301C9.33301 2.71175 9.33301 2.40113 9.43447 2.15609C9.56981 1.82939 9.82941 1.56983 10.1561 1.4345C10.4011 1.33301 10.7117 1.33301 11.333 1.33301H12.6663C13.2876 1.33301 13.5982 1.33301 13.8433 1.4345C14.1699 1.56983 14.4295 1.82939 14.5649 2.15609C14.6663 2.40113 14.6663 2.71175 14.6663 3.33301C14.6663 3.95426 14.6663 4.26489 14.5649 4.50992C14.4295 4.83662 14.1699 5.09619 13.8433 5.23151C13.5982 5.33301 13.2876 5.33301 12.6663 5.33301H11.333C10.7117 5.33301 10.4011 5.33301 10.1561 5.23151C9.82941 5.09619 9.56981 4.83662 9.43447 4.50992C9.33301 4.26489 9.33301 3.95426 9.33301 3.33301Z" stroke="#141B34" stroke-width="1.5"/>
</g>
</svg>
