<svg width="16" height="16" viewBox="0 0 16 16" fill="none" xmlns="http://www.w3.org/2000/svg">
<g id="invoice-01">
<path id="Vector" d="M2.66699 12.4302V5.36918C2.66699 3.46651 2.66699 2.51517 3.25278 1.92409C3.83857 1.33301 4.78137 1.33301 6.66699 1.33301H9.33366C11.2193 1.33301 12.1621 1.33301 12.7479 1.92409C13.3337 2.51517 13.3337 3.46651 13.3337 5.36918V12.4302C13.3337 13.438 13.3337 13.9419 13.0257 14.1402C12.5224 14.4644 11.7444 13.7846 11.3531 13.5379C11.0297 13.3339 10.8681 13.232 10.6887 13.2261C10.4948 13.2197 10.3303 13.3175 9.98093 13.5379L8.70699 14.3413C8.36333 14.5579 8.19153 14.6663 8.00033 14.6663C7.80913 14.6663 7.63733 14.5579 7.29366 14.3413L6.01975 13.5379C5.69643 13.3339 5.53477 13.232 5.35535 13.2261C5.16147 13.2197 4.99695 13.3175 4.64757 13.5379C4.25629 13.7846 3.47824 14.4644 2.97496 14.1402C2.66699 13.9419 2.66699 13.438 2.66699 12.4302Z" stroke="#141B34" stroke-width="1.5" stroke-linecap="round" stroke-linejoin="round"/>
<path id="Vector_2" d="M7.33301 7.33301H5.33301" stroke="#141B34" stroke-width="1.5" stroke-linecap="round" stroke-linejoin="round"/>
<path id="Vector_3" d="M9.33301 4.66699H5.33301" stroke="#141B34" stroke-width="1.5" stroke-linecap="round" stroke-linejoin="round"/>
</g>
</svg>
