<svg width="16" height="16" viewBox="0 0 16 16" fill="none" xmlns="http://www.w3.org/2000/svg">
<g id="user-account">
<path id="Vector" d="M9.33301 6H11.9997" stroke="#141B34" stroke-width="1.5" stroke-linecap="round"/>
<path id="Vector_2" d="M9.33301 8.33301H11.333" stroke="#141B34" stroke-width="1.5" stroke-linecap="round"/>
<path id="Vector_3" d="M11.333 2H4.66634C2.82539 2 1.33301 3.49238 1.33301 5.33333V10.6667C1.33301 12.5076 2.82539 14 4.66634 14H11.333C13.174 14 14.6663 12.5076 14.6663 10.6667V5.33333C14.6663 3.49238 13.174 2 11.333 2Z" stroke="#141B34" stroke-width="1.5" stroke-linejoin="round"/>
<path id="Vector_4" d="M3.33301 10.6663C4.13855 8.94561 7.14114 8.83241 7.99967 10.6663" stroke="#141B34" stroke-width="1.5" stroke-linecap="round" stroke-linejoin="round"/>
<path id="Vector_5" d="M6.99967 6.00033C6.99967 6.73667 6.40272 7.33367 5.66634 7.33367C4.92996 7.33367 4.33301 6.73667 4.33301 6.00033C4.33301 5.26395 4.92996 4.66699 5.66634 4.66699C6.40272 4.66699 6.99967 5.26395 6.99967 6.00033Z" stroke="#141B34" stroke-width="1.5"/>
</g>
</svg>
